<?xml version="1.0" standalone="no"?>
<!DOCTYPE svg PUBLIC "-//W3C//DTD SVG 1.0//EN" "http://www.w3.org/TR/2001/REC-SVG-20010904/DTD/svg10.dtd">
<svg xmlns="http://www.w3.org/2000/svg" xmlns:xlink="http://www.w3.org/1999/xlink" id="body_1" width="19" height="19">

<g transform="matrix(0.39583334 0 0 0.39583334 0 0)">
    <path d="M19.65 42C 17.55 42 15.775 41.275 14.325 39.825C 12.875 38.375004 12.150001 36.600002 12.15 34.5C 12.150001 32.4 12.875 30.625002 14.325 29.175C 15.775 27.725 17.55 27 19.65 27C 20.583332 27 21.425 27.133333 22.175 27.4C 22.925 27.666666 23.583332 28.033333 24.15 28.5L24.15 28.5L24.15 6L35.85 6L35.85 12.75L27.149998 12.75L27.149998 34.5C 27.149998 36.600002 26.425 38.375004 24.974998 39.825C 23.525 41.275 21.75 42 19.65 42z" stroke="none" fill="#000000" fill-rule="nonzero" />
</g>
</svg>